<mxfile host="Electron" agent="Mozilla/5.0 (Macintosh; Intel Mac OS X 10_15_7) AppleWebKit/537.36 (KHTML, like Gecko) draw.io/24.7.8 Chrome/128.0.6613.36 Electron/32.0.1 Safari/537.36" version="24.7.8" pages="3">
  <diagram name="HardwareDiagram" id="V3YBraudQAKVQ74iI9um">
    <mxGraphModel dx="1590" dy="1893" grid="1" gridSize="10" guides="1" tooltips="1" connect="1" arrows="1" fold="1" page="1" pageScale="1" pageWidth="1100" pageHeight="850" math="0" shadow="0">
      <root>
        <mxCell id="0" />
        <mxCell id="1" parent="0" />
        <mxCell id="ohz_6-j3R-_CkbYV9bnt-26" value="Plexiglass Control Box&lt;div&gt;&lt;br&gt;&lt;/div&gt;&lt;div&gt;&lt;br&gt;&lt;/div&gt;&lt;div&gt;&lt;br&gt;&lt;/div&gt;&lt;div&gt;&lt;br&gt;&lt;/div&gt;&lt;div&gt;&lt;br&gt;&lt;/div&gt;&lt;div&gt;&lt;br&gt;&lt;/div&gt;&lt;div&gt;&lt;br&gt;&lt;/div&gt;&lt;div&gt;&lt;br&gt;&lt;/div&gt;&lt;div&gt;&lt;br&gt;&lt;/div&gt;&lt;div&gt;&lt;br&gt;&lt;/div&gt;&lt;div&gt;&lt;br&gt;&lt;/div&gt;&lt;div&gt;&lt;br&gt;&lt;/div&gt;&lt;div&gt;&lt;br&gt;&lt;/div&gt;&lt;div&gt;&lt;br&gt;&lt;/div&gt;&lt;div&gt;&lt;br&gt;&lt;/div&gt;&lt;div&gt;&lt;br&gt;&lt;/div&gt;&lt;div&gt;&lt;br&gt;&lt;/div&gt;&lt;div&gt;&lt;br&gt;&lt;/div&gt;&lt;div&gt;&lt;br&gt;&lt;/div&gt;&lt;div&gt;&lt;br&gt;&lt;/div&gt;&lt;div&gt;&lt;br&gt;&lt;/div&gt;&lt;div&gt;&lt;br&gt;&lt;/div&gt;&lt;div&gt;&lt;br&gt;&lt;/div&gt;&lt;div&gt;&lt;br&gt;&lt;/div&gt;&lt;div&gt;&lt;br&gt;&lt;/div&gt;&lt;div&gt;&lt;br&gt;&lt;/div&gt;&lt;div&gt;&lt;br&gt;&lt;/div&gt;&lt;div&gt;&lt;br&gt;&lt;/div&gt;&lt;div&gt;&lt;br&gt;&lt;/div&gt;&lt;div&gt;&lt;br&gt;&lt;/div&gt;&lt;div&gt;&lt;br&gt;&lt;/div&gt;&lt;div&gt;&lt;br&gt;&lt;/div&gt;&lt;div&gt;&lt;br&gt;&lt;/div&gt;&lt;div&gt;&lt;br&gt;&lt;/div&gt;&lt;div&gt;&lt;br&gt;&lt;/div&gt;&lt;div&gt;&lt;br&gt;&lt;/div&gt;&lt;div&gt;&lt;br&gt;&lt;/div&gt;&lt;div&gt;&lt;br&gt;&lt;/div&gt;&lt;div&gt;&lt;br&gt;&lt;/div&gt;&lt;div&gt;&lt;br&gt;&lt;/div&gt;&lt;div&gt;&lt;br&gt;&lt;/div&gt;&lt;div&gt;&lt;br&gt;&lt;/div&gt;&lt;div&gt;&lt;br&gt;&lt;/div&gt;&lt;div&gt;&lt;br&gt;&lt;/div&gt;&lt;div&gt;&lt;br&gt;&lt;/div&gt;&lt;div&gt;&lt;br&gt;&lt;/div&gt;&lt;div&gt;&lt;br&gt;&lt;/div&gt;&lt;div&gt;&lt;br&gt;&lt;/div&gt;" style="rounded=0;whiteSpace=wrap;html=1;fillStyle=solid;fillColor=#3B3B3B;" parent="1" vertex="1">
          <mxGeometry x="200" y="-180" width="790" height="750" as="geometry" />
        </mxCell>
        <mxCell id="ohz_6-j3R-_CkbYV9bnt-18" value="PCB&lt;div&gt;&lt;br&gt;&lt;/div&gt;&lt;div&gt;&lt;br&gt;&lt;/div&gt;&lt;div&gt;&lt;br&gt;&lt;/div&gt;&lt;div&gt;&lt;br&gt;&lt;/div&gt;&lt;div&gt;&lt;br&gt;&lt;/div&gt;&lt;div&gt;&lt;br&gt;&lt;/div&gt;&lt;div&gt;&lt;br&gt;&lt;/div&gt;&lt;div&gt;&lt;br&gt;&lt;/div&gt;&lt;div&gt;&lt;br&gt;&lt;/div&gt;&lt;div&gt;&lt;br&gt;&lt;/div&gt;&lt;div&gt;&lt;br&gt;&lt;/div&gt;&lt;div&gt;&lt;br&gt;&lt;/div&gt;&lt;div&gt;&lt;br&gt;&lt;/div&gt;&lt;div&gt;&lt;br&gt;&lt;/div&gt;&lt;div&gt;&lt;br&gt;&lt;/div&gt;&lt;div&gt;&lt;br&gt;&lt;/div&gt;&lt;div&gt;&lt;br&gt;&lt;/div&gt;&lt;div&gt;&lt;br&gt;&lt;/div&gt;&lt;div&gt;&lt;br&gt;&lt;/div&gt;&lt;div&gt;&lt;br&gt;&lt;/div&gt;&lt;div&gt;&lt;br&gt;&lt;/div&gt;&lt;div&gt;&lt;br&gt;&lt;/div&gt;&lt;div&gt;&lt;br&gt;&lt;/div&gt;" style="rounded=0;whiteSpace=wrap;html=1;fillColor=#a20025;fontColor=#ffffff;strokeColor=#6F0000;" parent="1" vertex="1">
          <mxGeometry x="375" y="60" width="455" height="380" as="geometry" />
        </mxCell>
        <mxCell id="ohz_6-j3R-_CkbYV9bnt-11" style="edgeStyle=orthogonalEdgeStyle;rounded=0;orthogonalLoop=1;jettySize=auto;html=1;exitX=0.5;exitY=0;exitDx=0;exitDy=0;entryX=1;entryY=0.5;entryDx=0;entryDy=0;endArrow=none;endFill=0;" parent="1" source="ohz_6-j3R-_CkbYV9bnt-1" target="ohz_6-j3R-_CkbYV9bnt-3" edge="1">
          <mxGeometry relative="1" as="geometry" />
        </mxCell>
        <mxCell id="ohz_6-j3R-_CkbYV9bnt-13" style="edgeStyle=orthogonalEdgeStyle;rounded=0;orthogonalLoop=1;jettySize=auto;html=1;exitX=0.5;exitY=1;exitDx=0;exitDy=0;entryX=0;entryY=0.5;entryDx=0;entryDy=0;endArrow=none;endFill=0;" parent="1" source="ohz_6-j3R-_CkbYV9bnt-1" target="ohz_6-j3R-_CkbYV9bnt-12" edge="1">
          <mxGeometry relative="1" as="geometry" />
        </mxCell>
        <mxCell id="ohz_6-j3R-_CkbYV9bnt-39" style="edgeStyle=orthogonalEdgeStyle;rounded=0;orthogonalLoop=1;jettySize=auto;html=1;exitX=0.5;exitY=1;exitDx=0;exitDy=0;entryX=0;entryY=0.25;entryDx=0;entryDy=0;endArrow=none;endFill=0;" parent="1" source="ohz_6-j3R-_CkbYV9bnt-1" target="ohz_6-j3R-_CkbYV9bnt-35" edge="1">
          <mxGeometry relative="1" as="geometry" />
        </mxCell>
        <mxCell id="ohz_6-j3R-_CkbYV9bnt-1" value="5V Reg&lt;div&gt;LM1084IS-5.0/NOPB&lt;br&gt;&lt;/div&gt;" style="rounded=0;whiteSpace=wrap;html=1;" parent="1" vertex="1">
          <mxGeometry x="420" y="150" width="100" height="50" as="geometry" />
        </mxCell>
        <mxCell id="ohz_6-j3R-_CkbYV9bnt-2" value="3V Reg" style="rounded=0;whiteSpace=wrap;html=1;" parent="1" vertex="1">
          <mxGeometry x="710" y="120" width="100" height="50" as="geometry" />
        </mxCell>
        <mxCell id="ohz_6-j3R-_CkbYV9bnt-10" style="edgeStyle=orthogonalEdgeStyle;rounded=0;orthogonalLoop=1;jettySize=auto;html=1;exitX=1;exitY=0.5;exitDx=0;exitDy=0;entryX=0.5;entryY=0;entryDx=0;entryDy=0;endArrow=none;endFill=0;" parent="1" source="ohz_6-j3R-_CkbYV9bnt-3" target="ohz_6-j3R-_CkbYV9bnt-2" edge="1">
          <mxGeometry relative="1" as="geometry">
            <Array as="points">
              <mxPoint x="740" y="105" />
            </Array>
          </mxGeometry>
        </mxCell>
        <mxCell id="ohz_6-j3R-_CkbYV9bnt-3" value="12V Rectifier" style="rounded=0;whiteSpace=wrap;html=1;" parent="1" vertex="1">
          <mxGeometry x="210" y="80" width="100" height="50" as="geometry" />
        </mxCell>
        <mxCell id="ohz_6-j3R-_CkbYV9bnt-5" value="3V inputs:&lt;div&gt;Pots, UI buttons&lt;/div&gt;" style="rounded=0;whiteSpace=wrap;html=1;fillColor=#1ba1e2;strokeColor=#10739e;" parent="1" vertex="1">
          <mxGeometry x="940" y="250" width="100" height="50" as="geometry" />
        </mxCell>
        <mxCell id="ohz_6-j3R-_CkbYV9bnt-8" style="edgeStyle=orthogonalEdgeStyle;rounded=0;orthogonalLoop=1;jettySize=auto;html=1;exitX=1;exitY=0.5;exitDx=0;exitDy=0;entryX=0;entryY=0.5;entryDx=0;entryDy=0;endArrow=none;endFill=0;" parent="1" source="idWoRpyi6deSooy_igxX-4" target="ohz_6-j3R-_CkbYV9bnt-5" edge="1">
          <mxGeometry relative="1" as="geometry" />
        </mxCell>
        <mxCell id="ohz_6-j3R-_CkbYV9bnt-9" style="edgeStyle=orthogonalEdgeStyle;rounded=0;orthogonalLoop=1;jettySize=auto;html=1;exitX=0.5;exitY=0;exitDx=0;exitDy=0;entryX=0.5;entryY=1;entryDx=0;entryDy=0;endArrow=none;endFill=0;" parent="1" source="ohz_6-j3R-_CkbYV9bnt-6" target="ohz_6-j3R-_CkbYV9bnt-2" edge="1">
          <mxGeometry relative="1" as="geometry" />
        </mxCell>
        <mxCell id="ohz_6-j3R-_CkbYV9bnt-14" style="edgeStyle=orthogonalEdgeStyle;rounded=0;orthogonalLoop=1;jettySize=auto;html=1;exitX=0;exitY=0.5;exitDx=0;exitDy=0;entryX=0.5;entryY=0;entryDx=0;entryDy=0;endArrow=none;endFill=0;" parent="1" source="ohz_6-j3R-_CkbYV9bnt-6" target="ohz_6-j3R-_CkbYV9bnt-12" edge="1">
          <mxGeometry relative="1" as="geometry" />
        </mxCell>
        <mxCell id="ohz_6-j3R-_CkbYV9bnt-23" style="edgeStyle=orthogonalEdgeStyle;rounded=0;orthogonalLoop=1;jettySize=auto;html=1;exitX=0.5;exitY=1;exitDx=0;exitDy=0;entryX=0.5;entryY=0;entryDx=0;entryDy=0;jumpStyle=arc;endArrow=none;endFill=0;" parent="1" source="ohz_6-j3R-_CkbYV9bnt-6" target="ohz_6-j3R-_CkbYV9bnt-20" edge="1">
          <mxGeometry relative="1" as="geometry">
            <Array as="points">
              <mxPoint x="775" y="300" />
            </Array>
          </mxGeometry>
        </mxCell>
        <mxCell id="ohz_6-j3R-_CkbYV9bnt-36" style="edgeStyle=orthogonalEdgeStyle;rounded=0;orthogonalLoop=1;jettySize=auto;html=1;exitX=0.25;exitY=1;exitDx=0;exitDy=0;endArrow=none;endFill=0;" parent="1" source="ohz_6-j3R-_CkbYV9bnt-6" target="ohz_6-j3R-_CkbYV9bnt-35" edge="1">
          <mxGeometry relative="1" as="geometry">
            <Array as="points">
              <mxPoint x="700" y="300" />
              <mxPoint x="700" y="420" />
              <mxPoint x="550" y="420" />
            </Array>
          </mxGeometry>
        </mxCell>
        <mxCell id="ohz_6-j3R-_CkbYV9bnt-6" value="ESP32" style="rounded=0;whiteSpace=wrap;html=1;" parent="1" vertex="1">
          <mxGeometry x="690" y="250" width="100" height="50" as="geometry" />
        </mxCell>
        <mxCell id="ohz_6-j3R-_CkbYV9bnt-16" style="edgeStyle=orthogonalEdgeStyle;rounded=0;orthogonalLoop=1;jettySize=auto;html=1;exitX=1;exitY=0.5;exitDx=0;exitDy=0;endArrow=none;endFill=0;jumpStyle=arc;jumpSize=15;" parent="1" source="idWoRpyi6deSooy_igxX-1" target="ohz_6-j3R-_CkbYV9bnt-15" edge="1">
          <mxGeometry relative="1" as="geometry" />
        </mxCell>
        <mxCell id="ohz_6-j3R-_CkbYV9bnt-38" style="edgeStyle=orthogonalEdgeStyle;rounded=0;orthogonalLoop=1;jettySize=auto;html=1;exitX=0.25;exitY=1;exitDx=0;exitDy=0;entryX=0.25;entryY=0;entryDx=0;entryDy=0;endArrow=none;endFill=0;" parent="1" source="ohz_6-j3R-_CkbYV9bnt-12" target="ohz_6-j3R-_CkbYV9bnt-35" edge="1">
          <mxGeometry relative="1" as="geometry" />
        </mxCell>
        <mxCell id="ohz_6-j3R-_CkbYV9bnt-12" value="3-5V Level Shifter" style="rounded=0;whiteSpace=wrap;html=1;" parent="1" vertex="1">
          <mxGeometry x="500" y="330" width="100" height="70" as="geometry" />
        </mxCell>
        <mxCell id="ohz_6-j3R-_CkbYV9bnt-15" value="5V Outputs:&lt;div&gt;LEDs&lt;/div&gt;" style="rounded=0;whiteSpace=wrap;html=1;" parent="1" vertex="1">
          <mxGeometry x="940" y="340" width="100" height="50" as="geometry" />
        </mxCell>
        <mxCell id="ohz_6-j3R-_CkbYV9bnt-19" value="Terminal Blocks" style="whiteSpace=wrap;html=1;aspect=fixed;fillColor=#1ba1e2;fontColor=#ffffff;strokeColor=#006EAF;" parent="1" vertex="1">
          <mxGeometry x="350" y="75" width="60" height="60" as="geometry" />
        </mxCell>
        <mxCell id="ohz_6-j3R-_CkbYV9bnt-25" style="edgeStyle=orthogonalEdgeStyle;rounded=0;orthogonalLoop=1;jettySize=auto;html=1;exitX=0.5;exitY=1;exitDx=0;exitDy=0;strokeWidth=1;endArrow=none;endFill=0;" parent="1" source="ohz_6-j3R-_CkbYV9bnt-20" target="ohz_6-j3R-_CkbYV9bnt-24" edge="1">
          <mxGeometry relative="1" as="geometry" />
        </mxCell>
        <mxCell id="ohz_6-j3R-_CkbYV9bnt-20" value="Motor control JST" style="whiteSpace=wrap;html=1;aspect=fixed;fillColor=#1ba1e2;fontColor=#ffffff;strokeColor=#006EAF;" parent="1" vertex="1">
          <mxGeometry x="800" y="410" width="50" height="50" as="geometry" />
        </mxCell>
        <mxCell id="ohz_6-j3R-_CkbYV9bnt-37" style="edgeStyle=orthogonalEdgeStyle;rounded=0;orthogonalLoop=1;jettySize=auto;html=1;exitX=0;exitY=0.5;exitDx=0;exitDy=0;entryX=0.75;entryY=0;entryDx=0;entryDy=0;endArrow=none;endFill=0;" parent="1" source="ohz_6-j3R-_CkbYV9bnt-24" target="ohz_6-j3R-_CkbYV9bnt-35" edge="1">
          <mxGeometry relative="1" as="geometry" />
        </mxCell>
        <mxCell id="ohz_6-j3R-_CkbYV9bnt-24" value="Stepper Drivers" style="rounded=0;whiteSpace=wrap;html=1;" parent="1" vertex="1">
          <mxGeometry x="775" y="500" width="100" height="50" as="geometry" />
        </mxCell>
        <mxCell id="ohz_6-j3R-_CkbYV9bnt-30" style="edgeStyle=orthogonalEdgeStyle;rounded=0;orthogonalLoop=1;jettySize=auto;html=1;exitX=1;exitY=0.5;exitDx=0;exitDy=0;entryX=1;entryY=0.5;entryDx=0;entryDy=0;endArrow=none;endFill=0;" parent="1" source="ohz_6-j3R-_CkbYV9bnt-28" target="ohz_6-j3R-_CkbYV9bnt-29" edge="1">
          <mxGeometry relative="1" as="geometry" />
        </mxCell>
        <mxCell id="ohz_6-j3R-_CkbYV9bnt-28" value="Plug / Switch / Fuse" style="whiteSpace=wrap;html=1;aspect=fixed;fillColor=#1ba1e2;fontColor=#ffffff;strokeColor=#006EAF;" parent="1" vertex="1">
          <mxGeometry x="170" y="280" width="60" height="60" as="geometry" />
        </mxCell>
        <mxCell id="ohz_6-j3R-_CkbYV9bnt-31" style="edgeStyle=orthogonalEdgeStyle;rounded=0;orthogonalLoop=1;jettySize=auto;html=1;exitX=1;exitY=0.5;exitDx=0;exitDy=0;entryX=1;entryY=0.5;entryDx=0;entryDy=0;endArrow=none;endFill=0;" parent="1" source="ohz_6-j3R-_CkbYV9bnt-29" target="ohz_6-j3R-_CkbYV9bnt-3" edge="1">
          <mxGeometry relative="1" as="geometry" />
        </mxCell>
        <mxCell id="ohz_6-j3R-_CkbYV9bnt-29" value="EStop" style="whiteSpace=wrap;html=1;aspect=fixed;fillColor=#1ba1e2;fontColor=#ffffff;strokeColor=#006EAF;" parent="1" vertex="1">
          <mxGeometry x="170" y="190" width="60" height="60" as="geometry" />
        </mxCell>
        <mxCell id="ohz_6-j3R-_CkbYV9bnt-33" style="edgeStyle=orthogonalEdgeStyle;rounded=0;orthogonalLoop=1;jettySize=auto;html=1;exitX=1;exitY=0.5;exitDx=0;exitDy=0;endArrow=none;endFill=0;" parent="1" source="ohz_6-j3R-_CkbYV9bnt-32" edge="1">
          <mxGeometry relative="1" as="geometry">
            <mxPoint x="250" y="300" as="targetPoint" />
          </mxGeometry>
        </mxCell>
        <mxCell id="ohz_6-j3R-_CkbYV9bnt-32" value="Cooling Fan" style="whiteSpace=wrap;html=1;aspect=fixed;fillColor=#1ba1e2;fontColor=#ffffff;strokeColor=#006EAF;" parent="1" vertex="1">
          <mxGeometry x="170" y="365" width="60" height="60" as="geometry" />
        </mxCell>
        <mxCell id="ohz_6-j3R-_CkbYV9bnt-46" style="edgeStyle=orthogonalEdgeStyle;rounded=0;orthogonalLoop=1;jettySize=auto;html=1;exitX=0.5;exitY=1;exitDx=0;exitDy=0;entryX=0.5;entryY=0;entryDx=0;entryDy=0;endArrow=none;endFill=0;" parent="1" source="ohz_6-j3R-_CkbYV9bnt-35" target="ohz_6-j3R-_CkbYV9bnt-40" edge="1">
          <mxGeometry relative="1" as="geometry" />
        </mxCell>
        <mxCell id="ohz_6-j3R-_CkbYV9bnt-35" value="&lt;span style=&quot;color: rgb(255, 255, 255);&quot;&gt;CNC to Control Box Plug:&lt;/span&gt;&lt;br style=&quot;color: rgb(255, 255, 255);&quot;&gt;&lt;span style=&quot;color: rgb(255, 255, 255);&quot;&gt;12 x motor power, 2 x limit switch wires, 5v, gnd, PWM&lt;/span&gt;" style="rounded=0;whiteSpace=wrap;html=1;fillColor=#1ba1e2;" parent="1" vertex="1">
          <mxGeometry x="465" y="540" width="170" height="60" as="geometry" />
        </mxCell>
        <mxCell id="ohz_6-j3R-_CkbYV9bnt-40" value="Stepper" style="ellipse;whiteSpace=wrap;html=1;aspect=fixed;" parent="1" vertex="1">
          <mxGeometry x="340" y="690" width="80" height="80" as="geometry" />
        </mxCell>
        <mxCell id="ohz_6-j3R-_CkbYV9bnt-41" value="Stepper" style="ellipse;whiteSpace=wrap;html=1;aspect=fixed;" parent="1" vertex="1">
          <mxGeometry x="450" y="690" width="80" height="80" as="geometry" />
        </mxCell>
        <mxCell id="ohz_6-j3R-_CkbYV9bnt-42" value="Stepper" style="ellipse;whiteSpace=wrap;html=1;aspect=fixed;" parent="1" vertex="1">
          <mxGeometry x="562.5" y="690" width="80" height="80" as="geometry" />
        </mxCell>
        <mxCell id="ohz_6-j3R-_CkbYV9bnt-43" value="Aux Servo" style="ellipse;whiteSpace=wrap;html=1;aspect=fixed;" parent="1" vertex="1">
          <mxGeometry x="670" y="690" width="80" height="80" as="geometry" />
        </mxCell>
        <mxCell id="ohz_6-j3R-_CkbYV9bnt-44" value="Limit Switch" style="ellipse;whiteSpace=wrap;html=1;aspect=fixed;" parent="1" vertex="1">
          <mxGeometry x="780" y="690" width="80" height="80" as="geometry" />
        </mxCell>
        <mxCell id="ohz_6-j3R-_CkbYV9bnt-45" value="Limit Switch" style="ellipse;whiteSpace=wrap;html=1;aspect=fixed;" parent="1" vertex="1">
          <mxGeometry x="890" y="690" width="80" height="80" as="geometry" />
        </mxCell>
        <mxCell id="ohz_6-j3R-_CkbYV9bnt-47" style="edgeStyle=orthogonalEdgeStyle;rounded=0;orthogonalLoop=1;jettySize=auto;html=1;exitX=0.5;exitY=1;exitDx=0;exitDy=0;entryX=0.5;entryY=0;entryDx=0;entryDy=0;endArrow=none;endFill=0;" parent="1" source="ohz_6-j3R-_CkbYV9bnt-35" target="ohz_6-j3R-_CkbYV9bnt-41" edge="1">
          <mxGeometry relative="1" as="geometry">
            <mxPoint x="560" y="610" as="sourcePoint" />
            <mxPoint x="390" y="700" as="targetPoint" />
          </mxGeometry>
        </mxCell>
        <mxCell id="ohz_6-j3R-_CkbYV9bnt-49" style="edgeStyle=orthogonalEdgeStyle;rounded=0;orthogonalLoop=1;jettySize=auto;html=1;exitX=0.5;exitY=1;exitDx=0;exitDy=0;entryX=0.5;entryY=0;entryDx=0;entryDy=0;endArrow=none;endFill=0;" parent="1" source="ohz_6-j3R-_CkbYV9bnt-35" target="ohz_6-j3R-_CkbYV9bnt-42" edge="1">
          <mxGeometry relative="1" as="geometry">
            <mxPoint x="560" y="610" as="sourcePoint" />
            <mxPoint x="500" y="700" as="targetPoint" />
          </mxGeometry>
        </mxCell>
        <mxCell id="ohz_6-j3R-_CkbYV9bnt-50" style="edgeStyle=orthogonalEdgeStyle;rounded=0;orthogonalLoop=1;jettySize=auto;html=1;exitX=0.5;exitY=1;exitDx=0;exitDy=0;endArrow=none;endFill=0;" parent="1" source="ohz_6-j3R-_CkbYV9bnt-35" target="ohz_6-j3R-_CkbYV9bnt-43" edge="1">
          <mxGeometry relative="1" as="geometry">
            <mxPoint x="570" y="620" as="sourcePoint" />
            <mxPoint x="510" y="710" as="targetPoint" />
          </mxGeometry>
        </mxCell>
        <mxCell id="ohz_6-j3R-_CkbYV9bnt-51" style="edgeStyle=orthogonalEdgeStyle;rounded=0;orthogonalLoop=1;jettySize=auto;html=1;exitX=0.5;exitY=1;exitDx=0;exitDy=0;endArrow=none;endFill=0;entryX=0.5;entryY=0;entryDx=0;entryDy=0;" parent="1" source="ohz_6-j3R-_CkbYV9bnt-35" target="ohz_6-j3R-_CkbYV9bnt-44" edge="1">
          <mxGeometry relative="1" as="geometry">
            <mxPoint x="560" y="610" as="sourcePoint" />
            <mxPoint x="720" y="700" as="targetPoint" />
          </mxGeometry>
        </mxCell>
        <mxCell id="ohz_6-j3R-_CkbYV9bnt-52" style="edgeStyle=orthogonalEdgeStyle;rounded=0;orthogonalLoop=1;jettySize=auto;html=1;exitX=0.5;exitY=1;exitDx=0;exitDy=0;endArrow=none;endFill=0;entryX=0.5;entryY=0;entryDx=0;entryDy=0;" parent="1" source="ohz_6-j3R-_CkbYV9bnt-35" target="ohz_6-j3R-_CkbYV9bnt-45" edge="1">
          <mxGeometry relative="1" as="geometry">
            <mxPoint x="570" y="620" as="sourcePoint" />
            <mxPoint x="730" y="710" as="targetPoint" />
          </mxGeometry>
        </mxCell>
        <mxCell id="ohz_6-j3R-_CkbYV9bnt-56" style="edgeStyle=orthogonalEdgeStyle;rounded=0;orthogonalLoop=1;jettySize=auto;html=1;exitX=0.5;exitY=1;exitDx=0;exitDy=0;endArrow=none;endFill=0;" parent="1" source="ohz_6-j3R-_CkbYV9bnt-53" target="ohz_6-j3R-_CkbYV9bnt-1" edge="1">
          <mxGeometry relative="1" as="geometry" />
        </mxCell>
        <mxCell id="ohz_6-j3R-_CkbYV9bnt-57" value="Serial" style="edgeStyle=orthogonalEdgeStyle;rounded=0;orthogonalLoop=1;jettySize=auto;html=1;exitX=0.75;exitY=1;exitDx=0;exitDy=0;entryX=0;entryY=0.25;entryDx=0;entryDy=0;endArrow=none;endFill=0;" parent="1" source="ohz_6-j3R-_CkbYV9bnt-53" target="ohz_6-j3R-_CkbYV9bnt-6" edge="1">
          <mxGeometry relative="1" as="geometry" />
        </mxCell>
        <mxCell id="ohz_6-j3R-_CkbYV9bnt-53" value="Pi" style="rounded=0;whiteSpace=wrap;html=1;" parent="1" vertex="1">
          <mxGeometry x="530" y="-70" width="100" height="50" as="geometry" />
        </mxCell>
        <mxCell id="ohz_6-j3R-_CkbYV9bnt-55" style="edgeStyle=orthogonalEdgeStyle;rounded=0;orthogonalLoop=1;jettySize=auto;html=1;exitX=0.5;exitY=1;exitDx=0;exitDy=0;entryX=0.5;entryY=0;entryDx=0;entryDy=0;endArrow=none;endFill=0;" parent="1" source="ohz_6-j3R-_CkbYV9bnt-54" target="ohz_6-j3R-_CkbYV9bnt-53" edge="1">
          <mxGeometry relative="1" as="geometry" />
        </mxCell>
        <mxCell id="ohz_6-j3R-_CkbYV9bnt-54" value="HDMI&lt;div&gt;USB&lt;/div&gt;" style="whiteSpace=wrap;html=1;aspect=fixed;fillColor=#1ba1e2;fontColor=#ffffff;strokeColor=#006EAF;" parent="1" vertex="1">
          <mxGeometry x="350" y="-210" width="60" height="60" as="geometry" />
        </mxCell>
        <mxCell id="ohz_6-j3R-_CkbYV9bnt-63" style="edgeStyle=orthogonalEdgeStyle;rounded=0;orthogonalLoop=1;jettySize=auto;html=1;exitX=0.5;exitY=0;exitDx=0;exitDy=0;entryX=1;entryY=0.5;entryDx=0;entryDy=0;endArrow=none;endFill=0;" parent="1" source="ohz_6-j3R-_CkbYV9bnt-58" target="ohz_6-j3R-_CkbYV9bnt-53" edge="1">
          <mxGeometry relative="1" as="geometry" />
        </mxCell>
        <mxCell id="ohz_6-j3R-_CkbYV9bnt-58" value="Micro USB" style="whiteSpace=wrap;html=1;aspect=fixed;fillColor=#1ba1e2;fontColor=#ffffff;strokeColor=#006EAF;" parent="1" vertex="1">
          <mxGeometry x="635" y="30" width="60" height="60" as="geometry" />
        </mxCell>
        <mxCell id="ohz_6-j3R-_CkbYV9bnt-62" style="edgeStyle=orthogonalEdgeStyle;rounded=0;orthogonalLoop=1;jettySize=auto;html=1;exitX=0.5;exitY=0;exitDx=0;exitDy=0;entryX=0.5;entryY=1;entryDx=0;entryDy=0;endArrow=none;endFill=0;" parent="1" source="ohz_6-j3R-_CkbYV9bnt-59" target="ohz_6-j3R-_CkbYV9bnt-58" edge="1">
          <mxGeometry relative="1" as="geometry" />
        </mxCell>
        <mxCell id="ohz_6-j3R-_CkbYV9bnt-59" value="UART to USB" style="rounded=0;whiteSpace=wrap;html=1;" parent="1" vertex="1">
          <mxGeometry x="615" y="180" width="100" height="50" as="geometry" />
        </mxCell>
        <mxCell id="ohz_6-j3R-_CkbYV9bnt-61" style="edgeStyle=orthogonalEdgeStyle;rounded=0;orthogonalLoop=1;jettySize=auto;html=1;exitX=0.25;exitY=0;exitDx=0;exitDy=0;entryX=0.839;entryY=1.004;entryDx=0;entryDy=0;entryPerimeter=0;endArrow=none;endFill=0;" parent="1" source="ohz_6-j3R-_CkbYV9bnt-6" target="ohz_6-j3R-_CkbYV9bnt-59" edge="1">
          <mxGeometry relative="1" as="geometry" />
        </mxCell>
        <mxCell id="ohz_6-j3R-_CkbYV9bnt-64" value="Camera Port" style="whiteSpace=wrap;html=1;aspect=fixed;fillColor=#1ba1e2;fontColor=#ffffff;strokeColor=#006EAF;" parent="1" vertex="1">
          <mxGeometry x="670" y="-210" width="60" height="60" as="geometry" />
        </mxCell>
        <mxCell id="idWoRpyi6deSooy_igxX-3" value="" style="edgeStyle=orthogonalEdgeStyle;rounded=0;orthogonalLoop=1;jettySize=auto;html=1;exitX=1;exitY=0.5;exitDx=0;exitDy=0;endArrow=none;endFill=0;jumpStyle=arc;jumpSize=15;" parent="1" source="ohz_6-j3R-_CkbYV9bnt-12" target="idWoRpyi6deSooy_igxX-1" edge="1">
          <mxGeometry relative="1" as="geometry">
            <mxPoint x="600" y="365" as="sourcePoint" />
            <mxPoint x="940" y="365" as="targetPoint" />
          </mxGeometry>
        </mxCell>
        <mxCell id="idWoRpyi6deSooy_igxX-1" value="UI JST" style="whiteSpace=wrap;html=1;aspect=fixed;fillColor=#1ba1e2;fontColor=#ffffff;strokeColor=#006EAF;" parent="1" vertex="1">
          <mxGeometry x="810" y="340" width="50" height="50" as="geometry" />
        </mxCell>
        <mxCell id="idWoRpyi6deSooy_igxX-5" value="" style="edgeStyle=orthogonalEdgeStyle;rounded=0;orthogonalLoop=1;jettySize=auto;html=1;exitX=1;exitY=0.5;exitDx=0;exitDy=0;entryX=0;entryY=0.5;entryDx=0;entryDy=0;endArrow=none;endFill=0;" parent="1" source="ohz_6-j3R-_CkbYV9bnt-6" target="idWoRpyi6deSooy_igxX-4" edge="1">
          <mxGeometry relative="1" as="geometry">
            <mxPoint x="790" y="275" as="sourcePoint" />
            <mxPoint x="940" y="275" as="targetPoint" />
          </mxGeometry>
        </mxCell>
        <mxCell id="idWoRpyi6deSooy_igxX-4" value="UI JST" style="whiteSpace=wrap;html=1;aspect=fixed;fillColor=#1ba1e2;fontColor=#ffffff;strokeColor=#006EAF;" parent="1" vertex="1">
          <mxGeometry x="810" y="250" width="50" height="50" as="geometry" />
        </mxCell>
      </root>
    </mxGraphModel>
  </diagram>
  <diagram id="UdtNpej52Y4kEJb4zNMF" name="SoftwareDiagram">
    <mxGraphModel dx="1468" dy="963" grid="1" gridSize="10" guides="1" tooltips="1" connect="1" arrows="1" fold="1" page="1" pageScale="1" pageWidth="1100" pageHeight="850" math="0" shadow="0">
      <root>
        <mxCell id="0" />
        <mxCell id="1" parent="0" />
        <mxCell id="0Mv3xRhy6yU4_xnSb71P-13" style="edgeStyle=orthogonalEdgeStyle;rounded=0;orthogonalLoop=1;jettySize=auto;html=1;exitX=0;exitY=0.75;exitDx=0;exitDy=0;entryX=1;entryY=0.5;entryDx=0;entryDy=0;" parent="1" source="0Mv3xRhy6yU4_xnSb71P-1" target="0Mv3xRhy6yU4_xnSb71P-12" edge="1">
          <mxGeometry relative="1" as="geometry" />
        </mxCell>
        <mxCell id="0Mv3xRhy6yU4_xnSb71P-1" value="Motor Control Thread&lt;div&gt;1. Process Outputs&lt;/div&gt;&lt;div&gt;&lt;span style=&quot;white-space: pre;&quot;&gt;&#x9;&lt;/span&gt;1.1 Adjust stepper freq and direction&lt;/div&gt;&lt;div&gt;2.&amp;nbsp; Process Inputs&lt;br&gt;&amp;nbsp; &amp;nbsp; &amp;nbsp; &amp;nbsp;2.1 Copy over UI inputs&amp;nbsp;&lt;/div&gt;&lt;div&gt;3. Iterate&lt;/div&gt;&lt;div&gt;&amp;nbsp; &amp;nbsp; &amp;nbsp; 3.1 Solve Kinenamtic equations&lt;/div&gt;&lt;div&gt;&amp;nbsp; &amp;nbsp; &amp;nbsp;3.2 Compute speed commands&lt;/div&gt;&lt;div&gt;&lt;br&gt;&lt;/div&gt;&lt;div&gt;&lt;br&gt;&lt;/div&gt;&lt;div&gt;&lt;br&gt;&lt;/div&gt;&lt;div&gt;&lt;br&gt;&lt;/div&gt;&lt;div&gt;&lt;br&gt;&lt;/div&gt;&lt;div&gt;&lt;br&gt;&lt;/div&gt;&lt;div&gt;&lt;br&gt;&lt;/div&gt;&lt;div&gt;&lt;br&gt;&lt;/div&gt;&lt;div&gt;&lt;br&gt;&lt;/div&gt;&lt;div&gt;&lt;br&gt;&lt;/div&gt;" style="rounded=0;whiteSpace=wrap;html=1;align=left;" parent="1" vertex="1">
          <mxGeometry x="710" y="100" width="200" height="290" as="geometry" />
        </mxCell>
        <mxCell id="0Mv3xRhy6yU4_xnSb71P-8" style="edgeStyle=orthogonalEdgeStyle;rounded=0;orthogonalLoop=1;jettySize=auto;html=1;exitX=1;exitY=0.5;exitDx=0;exitDy=0;entryX=0;entryY=0.5;entryDx=0;entryDy=0;" parent="1" source="0Mv3xRhy6yU4_xnSb71P-2" target="0Mv3xRhy6yU4_xnSb71P-7" edge="1">
          <mxGeometry relative="1" as="geometry" />
        </mxCell>
        <mxCell id="0Mv3xRhy6yU4_xnSb71P-2" value="Safety Thread&lt;div&gt;Monitor limit switches&lt;/div&gt;&lt;div&gt;control enable pin&lt;/div&gt;" style="rounded=0;whiteSpace=wrap;html=1;align=left;" parent="1" vertex="1">
          <mxGeometry x="280" y="200" width="200" height="90" as="geometry" />
        </mxCell>
        <mxCell id="0Mv3xRhy6yU4_xnSb71P-9" style="edgeStyle=orthogonalEdgeStyle;rounded=0;orthogonalLoop=1;jettySize=auto;html=1;exitX=1;exitY=0.5;exitDx=0;exitDy=0;" parent="1" source="0Mv3xRhy6yU4_xnSb71P-3" target="0Mv3xRhy6yU4_xnSb71P-7" edge="1">
          <mxGeometry relative="1" as="geometry" />
        </mxCell>
        <mxCell id="0Mv3xRhy6yU4_xnSb71P-3" value="UI Thread" style="rounded=0;whiteSpace=wrap;html=1;align=left;" parent="1" vertex="1">
          <mxGeometry x="280" y="70" width="200" height="100" as="geometry" />
        </mxCell>
        <mxCell id="0Mv3xRhy6yU4_xnSb71P-10" style="edgeStyle=orthogonalEdgeStyle;rounded=0;orthogonalLoop=1;jettySize=auto;html=1;exitX=1;exitY=0.5;exitDx=0;exitDy=0;entryX=0.5;entryY=1;entryDx=0;entryDy=0;" parent="1" source="YKP2Ocee15awaDIFJk1J-1" target="0Mv3xRhy6yU4_xnSb71P-7" edge="1">
          <mxGeometry relative="1" as="geometry" />
        </mxCell>
        <mxCell id="YKP2Ocee15awaDIFJk1J-3" style="edgeStyle=orthogonalEdgeStyle;rounded=0;orthogonalLoop=1;jettySize=auto;html=1;exitX=0;exitY=0.5;exitDx=0;exitDy=0;" edge="1" parent="1" source="0Mv3xRhy6yU4_xnSb71P-4" target="YKP2Ocee15awaDIFJk1J-2">
          <mxGeometry relative="1" as="geometry" />
        </mxCell>
        <mxCell id="0Mv3xRhy6yU4_xnSb71P-4" value="Telemetry Thread" style="rounded=0;whiteSpace=wrap;html=1;align=left;" parent="1" vertex="1">
          <mxGeometry x="280" y="410" width="200" height="60" as="geometry" />
        </mxCell>
        <mxCell id="0Mv3xRhy6yU4_xnSb71P-5" value="S0 motor control thread" style="rounded=0;whiteSpace=wrap;html=1;align=left;" parent="1" vertex="1">
          <mxGeometry x="640" y="690" width="190" height="100" as="geometry" />
        </mxCell>
        <mxCell id="0Mv3xRhy6yU4_xnSb71P-6" value="S1 motor control thread" style="rounded=0;whiteSpace=wrap;html=1;align=left;" parent="1" vertex="1">
          <mxGeometry x="860" y="690" width="200" height="100" as="geometry" />
        </mxCell>
        <mxCell id="0Mv3xRhy6yU4_xnSb71P-11" style="edgeStyle=orthogonalEdgeStyle;rounded=0;orthogonalLoop=1;jettySize=auto;html=1;exitX=1;exitY=0.5;exitDx=0;exitDy=0;entryX=0;entryY=0.5;entryDx=0;entryDy=0;" parent="1" source="0Mv3xRhy6yU4_xnSb71P-7" target="0Mv3xRhy6yU4_xnSb71P-1" edge="1">
          <mxGeometry relative="1" as="geometry" />
        </mxCell>
        <mxCell id="0Mv3xRhy6yU4_xnSb71P-7" value="Command Queue" style="ellipse;whiteSpace=wrap;html=1;aspect=fixed;" parent="1" vertex="1">
          <mxGeometry x="540" y="250" width="80" height="80" as="geometry" />
        </mxCell>
        <mxCell id="0Mv3xRhy6yU4_xnSb71P-14" style="edgeStyle=orthogonalEdgeStyle;rounded=0;orthogonalLoop=1;jettySize=auto;html=1;exitX=0;exitY=0.5;exitDx=0;exitDy=0;entryX=0.5;entryY=1;entryDx=0;entryDy=0;" parent="1" source="0Mv3xRhy6yU4_xnSb71P-12" target="0Mv3xRhy6yU4_xnSb71P-4" edge="1">
          <mxGeometry relative="1" as="geometry" />
        </mxCell>
        <mxCell id="0Mv3xRhy6yU4_xnSb71P-12" value="Telemetry Queue" style="ellipse;whiteSpace=wrap;html=1;aspect=fixed;" parent="1" vertex="1">
          <mxGeometry x="550" y="540" width="80" height="80" as="geometry" />
        </mxCell>
        <mxCell id="0Mv3xRhy6yU4_xnSb71P-18" style="edgeStyle=orthogonalEdgeStyle;rounded=0;orthogonalLoop=1;jettySize=auto;html=1;exitX=0.5;exitY=1;exitDx=0;exitDy=0;exitPerimeter=0;entryX=0.5;entryY=0;entryDx=0;entryDy=0;startArrow=classic;startFill=1;" parent="1" source="0Mv3xRhy6yU4_xnSb71P-16" target="0Mv3xRhy6yU4_xnSb71P-5" edge="1">
          <mxGeometry relative="1" as="geometry" />
        </mxCell>
        <mxCell id="0Mv3xRhy6yU4_xnSb71P-16" value="Global Motor Control Data" style="shape=cylinder3;whiteSpace=wrap;html=1;boundedLbl=1;backgroundOutline=1;size=15;" parent="1" vertex="1">
          <mxGeometry x="690" y="500" width="90" height="90" as="geometry" />
        </mxCell>
        <mxCell id="0Mv3xRhy6yU4_xnSb71P-17" style="edgeStyle=orthogonalEdgeStyle;rounded=0;orthogonalLoop=1;jettySize=auto;html=1;exitX=0.5;exitY=1;exitDx=0;exitDy=0;entryX=0.5;entryY=0;entryDx=0;entryDy=0;entryPerimeter=0;endArrow=classic;endFill=1;startArrow=classic;startFill=1;" parent="1" source="0Mv3xRhy6yU4_xnSb71P-1" target="0Mv3xRhy6yU4_xnSb71P-16" edge="1">
          <mxGeometry relative="1" as="geometry" />
        </mxCell>
        <mxCell id="0Mv3xRhy6yU4_xnSb71P-20" value="Mutex" style="ellipse;whiteSpace=wrap;html=1;aspect=fixed;" parent="1" vertex="1">
          <mxGeometry x="770" y="480" width="50" height="50" as="geometry" />
        </mxCell>
        <mxCell id="yauNS0q1Cea19QInSVjC-1" value="Global Motor Control Data" style="shape=cylinder3;whiteSpace=wrap;html=1;boundedLbl=1;backgroundOutline=1;size=15;" parent="1" vertex="1">
          <mxGeometry x="895" y="500" width="90" height="90" as="geometry" />
        </mxCell>
        <mxCell id="yauNS0q1Cea19QInSVjC-2" value="Mutex" style="ellipse;whiteSpace=wrap;html=1;aspect=fixed;" parent="1" vertex="1">
          <mxGeometry x="975" y="480" width="50" height="50" as="geometry" />
        </mxCell>
        <mxCell id="yauNS0q1Cea19QInSVjC-3" style="edgeStyle=orthogonalEdgeStyle;rounded=0;orthogonalLoop=1;jettySize=auto;html=1;entryX=0.5;entryY=0;entryDx=0;entryDy=0;startArrow=classic;startFill=1;exitX=0.5;exitY=1;exitDx=0;exitDy=0;exitPerimeter=0;" parent="1" source="yauNS0q1Cea19QInSVjC-1" target="0Mv3xRhy6yU4_xnSb71P-6" edge="1">
          <mxGeometry relative="1" as="geometry">
            <mxPoint x="940" y="620" as="sourcePoint" />
            <mxPoint x="830" y="650" as="targetPoint" />
          </mxGeometry>
        </mxCell>
        <mxCell id="yauNS0q1Cea19QInSVjC-4" style="edgeStyle=orthogonalEdgeStyle;rounded=0;orthogonalLoop=1;jettySize=auto;html=1;exitX=0.75;exitY=1;exitDx=0;exitDy=0;entryX=0.5;entryY=0;entryDx=0;entryDy=0;entryPerimeter=0;endArrow=classic;endFill=1;startArrow=classic;startFill=1;" parent="1" source="0Mv3xRhy6yU4_xnSb71P-1" target="yauNS0q1Cea19QInSVjC-1" edge="1">
          <mxGeometry relative="1" as="geometry">
            <mxPoint x="910" y="460" as="sourcePoint" />
            <mxPoint x="835" y="570" as="targetPoint" />
          </mxGeometry>
        </mxCell>
        <mxCell id="yauNS0q1Cea19QInSVjC-5" value="Trajectory Planning Utility" style="whiteSpace=wrap;html=1;aspect=fixed;" parent="1" vertex="1">
          <mxGeometry x="710" y="310" width="80" height="80" as="geometry" />
        </mxCell>
        <mxCell id="YKP2Ocee15awaDIFJk1J-1" value="CLI / Pi thread" style="rounded=0;whiteSpace=wrap;html=1;align=left;" vertex="1" parent="1">
          <mxGeometry x="280" y="320" width="200" height="60" as="geometry" />
        </mxCell>
        <mxCell id="YKP2Ocee15awaDIFJk1J-2" value="Influx DB" style="shape=cylinder3;whiteSpace=wrap;html=1;boundedLbl=1;backgroundOutline=1;size=15;" vertex="1" parent="1">
          <mxGeometry x="110" y="500" width="90" height="90" as="geometry" />
        </mxCell>
        <mxCell id="YKP2Ocee15awaDIFJk1J-4" value="Grafana" style="rounded=0;whiteSpace=wrap;html=1;align=left;" vertex="1" parent="1">
          <mxGeometry x="70" y="670" width="200" height="100" as="geometry" />
        </mxCell>
      </root>
    </mxGraphModel>
  </diagram>
  <diagram id="QAV3BvU5Y_fw1B6DC_Mr" name="KinematicDiagram">
    <mxGraphModel dx="615" dy="404" grid="1" gridSize="10" guides="1" tooltips="1" connect="1" arrows="1" fold="1" page="1" pageScale="1" pageWidth="1100" pageHeight="850" background="#ffffff" math="0" shadow="0">
      <root>
        <mxCell id="0" />
        <mxCell id="1" parent="0" />
        <mxCell id="kNvqpxsYLtPd9jGvzDpR-18" value="" style="endArrow=classic;html=1;rounded=0;strokeColor=#000000;" edge="1" parent="1">
          <mxGeometry width="50" height="50" relative="1" as="geometry">
            <mxPoint x="400" y="240" as="sourcePoint" />
            <mxPoint x="375" y="200" as="targetPoint" />
          </mxGeometry>
        </mxCell>
        <mxCell id="kNvqpxsYLtPd9jGvzDpR-3" value="" style="rounded=0;whiteSpace=wrap;html=1;fillColor=none;strokeColor=#000000;dashed=1;" vertex="1" parent="1">
          <mxGeometry x="350" y="190" width="260" height="130" as="geometry" />
        </mxCell>
        <mxCell id="kNvqpxsYLtPd9jGvzDpR-1" value="" style="endArrow=none;html=1;rounded=0;strokeWidth=8;startArrow=oval;startFill=1;strokeColor=#000000;" edge="1" parent="1">
          <mxGeometry width="50" height="50" relative="1" as="geometry">
            <mxPoint x="480" y="360" as="sourcePoint" />
            <mxPoint x="400" y="240" as="targetPoint" />
          </mxGeometry>
        </mxCell>
        <mxCell id="kNvqpxsYLtPd9jGvzDpR-4" value="&lt;font color=&quot;#000000&quot; style=&quot;&quot;&gt;Stage 0&lt;/font&gt;" style="edgeLabel;html=1;align=center;verticalAlign=middle;resizable=0;points=[];labelBackgroundColor=none;rotation=54.7;" vertex="1" connectable="0" parent="kNvqpxsYLtPd9jGvzDpR-1">
          <mxGeometry x="-0.1288" y="-3" relative="1" as="geometry">
            <mxPoint x="-28" y="-16" as="offset" />
          </mxGeometry>
        </mxCell>
        <mxCell id="kNvqpxsYLtPd9jGvzDpR-2" value="" style="endArrow=none;html=1;rounded=0;strokeWidth=8;startArrow=oval;startFill=1;strokeColor=#d10000;" edge="1" parent="1">
          <mxGeometry width="50" height="50" relative="1" as="geometry">
            <mxPoint x="400" y="240" as="sourcePoint" />
            <mxPoint x="500" y="250" as="targetPoint" />
          </mxGeometry>
        </mxCell>
        <mxCell id="kNvqpxsYLtPd9jGvzDpR-7" value="Stage 1" style="edgeLabel;html=1;align=center;verticalAlign=middle;resizable=0;points=[];fontColor=#000000;labelBackgroundColor=none;rotation=5;" vertex="1" connectable="0" parent="kNvqpxsYLtPd9jGvzDpR-2">
          <mxGeometry x="0.201" relative="1" as="geometry">
            <mxPoint y="-10" as="offset" />
          </mxGeometry>
        </mxCell>
        <mxCell id="kNvqpxsYLtPd9jGvzDpR-8" value="" style="verticalLabelPosition=bottom;verticalAlign=top;html=1;shape=mxgraph.basic.arc;startAngle=0.018423651708717955;endAngle=0.8012081911747834;fillColor=none;strokeColor=#000000;" vertex="1" parent="1">
          <mxGeometry x="460" y="340" width="40" height="40" as="geometry" />
        </mxCell>
        <mxCell id="kNvqpxsYLtPd9jGvzDpR-9" value="" style="endArrow=classic;html=1;rounded=0;strokeColor=#000000;" edge="1" parent="1">
          <mxGeometry width="50" height="50" relative="1" as="geometry">
            <mxPoint x="461" y="354" as="sourcePoint" />
            <mxPoint x="467" y="345" as="targetPoint" />
          </mxGeometry>
        </mxCell>
        <mxCell id="kNvqpxsYLtPd9jGvzDpR-10" value="" style="endArrow=classic;html=1;rounded=0;strokeColor=#000000;" edge="1" parent="1">
          <mxGeometry width="50" height="50" relative="1" as="geometry">
            <mxPoint x="480" y="360" as="sourcePoint" />
            <mxPoint x="480" y="310" as="targetPoint" />
          </mxGeometry>
        </mxCell>
        <mxCell id="kNvqpxsYLtPd9jGvzDpR-12" value="Y" style="edgeLabel;html=1;align=center;verticalAlign=middle;resizable=0;points=[];labelBackgroundColor=none;fontColor=#000000;" vertex="1" connectable="0" parent="kNvqpxsYLtPd9jGvzDpR-10">
          <mxGeometry x="0.7795" y="1" relative="1" as="geometry">
            <mxPoint y="-13" as="offset" />
          </mxGeometry>
        </mxCell>
        <mxCell id="kNvqpxsYLtPd9jGvzDpR-11" value="" style="endArrow=classic;html=1;rounded=0;strokeColor=#000000;" edge="1" parent="1">
          <mxGeometry width="50" height="50" relative="1" as="geometry">
            <mxPoint x="480" y="359.73" as="sourcePoint" />
            <mxPoint x="530" y="360" as="targetPoint" />
          </mxGeometry>
        </mxCell>
        <mxCell id="kNvqpxsYLtPd9jGvzDpR-13" value="X" style="edgeLabel;html=1;align=center;verticalAlign=middle;resizable=0;points=[];labelBackgroundColor=none;fontColor=#000000;" vertex="1" connectable="0" parent="1">
          <mxGeometry x="488.0000000000001" y="314.9956756756756" as="geometry">
            <mxPoint x="45" y="45" as="offset" />
          </mxGeometry>
        </mxCell>
        <mxCell id="kNvqpxsYLtPd9jGvzDpR-15" value="&lt;span style=&quot;font-family: &amp;quot;Google Sans&amp;quot;, Roboto, Arial, sans-serif; text-align: left; text-wrap: wrap;&quot;&gt;&lt;span style=&quot;font-size: 16px;&quot;&gt;θ&lt;/span&gt;&lt;sub style=&quot;&quot;&gt;&lt;font style=&quot;font-size: 9px;&quot;&gt;0&lt;/font&gt;&lt;/sub&gt;&lt;/span&gt;" style="edgeLabel;html=1;align=center;verticalAlign=middle;resizable=0;points=[];labelBackgroundColor=none;fontColor=#000000;" vertex="1" connectable="0" parent="1">
          <mxGeometry x="489.0000000000001" y="312.6756756756756" as="geometry">
            <mxPoint x="-29" y="66" as="offset" />
          </mxGeometry>
        </mxCell>
        <mxCell id="kNvqpxsYLtPd9jGvzDpR-16" value="" style="verticalLabelPosition=bottom;verticalAlign=top;html=1;shape=mxgraph.basic.arc;startAngle=0.9093909914689088;endAngle=0.16537348633483367;fillColor=none;strokeColor=#000000;" vertex="1" parent="1">
          <mxGeometry x="380" y="220" width="40" height="40" as="geometry" />
        </mxCell>
        <mxCell id="kNvqpxsYLtPd9jGvzDpR-17" value="" style="endArrow=classic;html=1;rounded=0;strokeColor=#000000;" edge="1" parent="1">
          <mxGeometry width="50" height="50" relative="1" as="geometry">
            <mxPoint x="417" y="230" as="sourcePoint" />
            <mxPoint x="418" y="238" as="targetPoint" />
          </mxGeometry>
        </mxCell>
        <mxCell id="kNvqpxsYLtPd9jGvzDpR-20" value="&lt;span style=&quot;forced-color-adjust: none; border-color: rgb(0, 0, 0); color: rgb(0, 0, 0); font-family: &amp;quot;Google Sans&amp;quot;, Roboto, Arial, sans-serif; font-style: normal; font-variant-ligatures: normal; font-variant-caps: normal; font-weight: 400; letter-spacing: normal; orphans: 2; text-align: left; text-indent: 0px; text-transform: none; widows: 2; word-spacing: 0px; -webkit-text-stroke-width: 0px; white-space: normal; text-decoration-thickness: initial; text-decoration-style: initial; text-decoration-color: initial; font-size: 16px;&quot;&gt;θ&lt;/span&gt;&lt;sub style=&quot;forced-color-adjust: none; border-color: rgb(0, 0, 0); color: rgb(0, 0, 0); font-family: &amp;quot;Google Sans&amp;quot;, Roboto, Arial, sans-serif; font-style: normal; font-variant-ligatures: normal; font-variant-caps: normal; font-weight: 400; letter-spacing: normal; orphans: 2; text-align: left; text-indent: 0px; text-transform: none; widows: 2; word-spacing: 0px; -webkit-text-stroke-width: 0px; white-space: normal; text-decoration-thickness: initial; text-decoration-style: initial; text-decoration-color: initial;&quot;&gt;&lt;font style=&quot;forced-color-adjust: none; border-color: rgb(0, 0, 0); font-size: 9px;&quot;&gt;1&lt;/font&gt;&lt;/sub&gt;" style="text;whiteSpace=wrap;html=1;labelBackgroundColor=none;" vertex="1" parent="1">
          <mxGeometry x="397" y="193" width="50" height="40" as="geometry" />
        </mxCell>
        <mxCell id="kNvqpxsYLtPd9jGvzDpR-22" value="" style="shape=note;whiteSpace=wrap;html=1;backgroundOutline=1;fontColor=#000000;darkOpacity=0.05;fillColor=#FFF9B2;strokeColor=none;fillStyle=solid;direction=west;gradientDirection=north;gradientColor=#FFF2A1;shadow=1;size=20;pointerEvents=1;" vertex="1" parent="1">
          <mxGeometry x="670" y="270" width="140" height="160" as="geometry" />
        </mxCell>
        <mxCell id="kNvqpxsYLtPd9jGvzDpR-23" value="" style="shape=stencil(fZbdcgIhDIWfZm8zQAg/17Z9j85U606tdqz9e/tmZ0c0uJ47xP0I5JwEBl59bp8/1kNwn6fj4W39M76ctgM/DCGM++36OJ50NPDjwKvN4bh+PR6+9i/z74/n6ctp9H74nlb4nbmSKZeJCu5vngmZ6jzzNAO7cX8FVKEsBuBKrgKg9oAE8gkCbLeUhEoEQKSUDZDLeWYRKIl8MEDRmHwfyBrBG6Amyu4+kDxxMoB3jhwgYu7TVAsVkFcWCs4CTBEoF4RctKeOxHIf8IXYpikHikAIf+MNUW94AGSSaoAoFIE3AlOyeWU+p2E5S9yfQZcQILVuQOwZdJNoS9Ls3wA5u2XZTIHECqeJ9kDpSaauRiNVcAY1QhdBzeLBli5WazpkSsBLV25uRaqWRyFawTQzRRIQYirJzq5atkBqLfouwqUxLBepthWb10vrWZY6UOAeyKCCtDV625mm9gmUC4Wc3VLJMMIE1BsA2FW9JraVlQB7n3c9oMKhCLEvIM1zBPZ25/umNQ1tVEC2G+fFCC8g398O2hNQuQlVu752DBfA+q0ptnqO5JFmeuIuo9DY7KjY71UxdJV4EntifPWorW++R/dC4t7V3DlIB5cHx2bc7eb3yvX//QNFp+bHDT/+Aw==);lineShape=1;strokeColor=default;" vertex="1" parent="1">
          <mxGeometry x="673.3019102209521" y="277.2098790054963" width="3.014541788461429" height="3.009829817004673" as="geometry" />
        </mxCell>
        <mxCell id="kNvqpxsYLtPd9jGvzDpR-24" value="" style="shape=stencil(fZbdcgIhDIWfZm8zQAg/17Z9j85U606tdqz9e/tmZ0c0uJ47xP0I5JwEBl59bp8/1kNwn6fj4W39M76ctgM/DCGM++36OJ50NPDjwKvN4bh+PR6+9i/z74/n6ctp9H74nlb4nbmSKZeJCu5vngmZ6jzzNAO7cX8FVKEsBuBKrgKg9oAE8gkCbLeUhEoEQKSUDZDLeWYRKIl8MEDRmHwfyBrBG6Amyu4+kDxxMoB3jhwgYu7TVAsVkFcWCs4CTBEoF4RctKeOxHIf8IXYpikHikAIf+MNUW94AGSSaoAoFIE3AlOyeWU+p2E5S9yfQZcQILVuQOwZdJNoS9Ls3wA5u2XZTIHECqeJ9kDpSaauRiNVcAY1QhdBzeLBli5WazpkSsBLV25uRaqWRyFawTQzRRIQYirJzq5atkBqLfouwqUxLBepthWb10vrWZY6UOAeyKCCtDV625mm9gmUC4Wc3VLJMMIE1BsA2FW9JraVlQB7n3c9oMKhCLEvIM1zBPZ25/umNQ1tVEC2G+fFCC8g398O2hNQuQlVu752DBfA+q0ptnqO5JFmeuIuo9DY7KjY71UxdJV4EntifPWorW++R/dC4t7V3DlIB5cHx2bc7eb3yvX//QNFp+bHDT/+Aw==);lineShape=1;strokeColor=default;" vertex="1" parent="1">
          <mxGeometry x="670.7212650596616" y="237.2098790054962" width="3.0145417884615755" height="3.0098298170049667" as="geometry" />
        </mxCell>
        <mxCell id="kNvqpxsYLtPd9jGvzDpR-25" value="" style="shape=stencil(fZbdcgIhDIWfZm8zQAg/17Z9j85U606tdqz9e/tmZ0c0uJ47xP0I5JwEBl59bp8/1kNwn6fj4W39M76ctgM/DCGM++36OJ50NPDjwKvN4bh+PR6+9i/z74/n6ctp9H74nlb4nbmSKZeJCu5vngmZ6jzzNAO7cX8FVKEsBuBKrgKg9oAE8gkCbLeUhEoEQKSUDZDLeWYRKIl8MEDRmHwfyBrBG6Amyu4+kDxxMoB3jhwgYu7TVAsVkFcWCs4CTBEoF4RctKeOxHIf8IXYpikHikAIf+MNUW94AGSSaoAoFIE3AlOyeWU+p2E5S9yfQZcQILVuQOwZdJNoS9Ls3wA5u2XZTIHECqeJ9kDpSaauRiNVcAY1QhdBzeLBli5WazpkSsBLV25uRaqWRyFawTQzRRIQYirJzq5atkBqLfouwqUxLBepthWb10vrWZY6UOAeyKCCtDV625mm9gmUC4Wc3VLJMMIE1BsA2FW9JraVlQB7n3c9oMKhCLEvIM1zBPZ25/umNQ1tVEC2G+fFCC8g398O2hNQuQlVu752DBfA+q0ptnqO5JFmeuIuo9DY7KjY71UxdJV4EntifPWorW++R/dC4t7V3DlIB5cHx2bc7eb3yvX//QNFp+bHDT/+Aw==);lineShape=1;strokeColor=default;" vertex="1" parent="1">
          <mxGeometry x="265.559974737081" y="244.3066531990446" width="3.0145417884615755" height="3.0098298170049667" as="geometry" />
        </mxCell>
      </root>
    </mxGraphModel>
  </diagram>
</mxfile>
